<svg id="visual" viewBox="0 0 900 600" width="900" height="600" xmlns="http://www.w3.org/2000/svg" xmlns:xlink="http://www.w3.org/1999/xlink" version="1.1"><rect x="0" y="0" width="900" height="600" fill="#001220"></rect><defs><linearGradient id="grad1_0" x1="33.3%" y1="0%" x2="100%" y2="100%"><stop offset="20%" stop-color="#4d002b" stop-opacity="1"></stop><stop offset="80%" stop-color="#4d002b" stop-opacity="1"></stop></linearGradient></defs><defs><linearGradient id="grad1_1" x1="33.3%" y1="0%" x2="100%" y2="100%"><stop offset="20%" stop-color="#4d002b" stop-opacity="1"></stop><stop offset="80%" stop-color="#001220" stop-opacity="1"></stop></linearGradient></defs><defs><linearGradient id="grad2_0" x1="0%" y1="0%" x2="66.7%" y2="100%"><stop offset="20%" stop-color="#4d002b" stop-opacity="1"></stop><stop offset="80%" stop-color="#4d002b" stop-opacity="1"></stop></linearGradient></defs><defs><linearGradient id="grad2_1" x1="0%" y1="0%" x2="66.7%" y2="100%"><stop offset="20%" stop-color="#001220" stop-opacity="1"></stop><stop offset="80%" stop-color="#4d002b" stop-opacity="1"></stop></linearGradient></defs><g transform="translate(900, 0)"><path d="M0 486.7C-55.2 462.5 -110.5 438.2 -173.7 419.4C-237 400.7 -308.4 387.5 -344.2 344.2C-380 300.8 -380.3 227.3 -398.2 164.9C-416 102.5 -451.4 51.3 -486.7 0L0 0Z" fill="#201434"></path><path d="M0 243.4C-27.6 231.2 -55.2 219.1 -86.9 209.7C-118.5 200.4 -154.2 193.8 -172.1 172.1C-190 150.4 -190.2 113.7 -199.1 82.5C-208 51.3 -225.7 25.6 -243.4 0L0 0Z" fill="#4d002b"></path></g><g transform="translate(0, 600)"><path d="M0 -486.7C61.4 -469.3 122.8 -451.9 176 -425C229.3 -398.1 274.3 -361.8 322.4 -322.4C370.6 -283 421.8 -240.5 449.7 -186.3C477.6 -132 482.2 -66 486.7 0L0 0Z" fill="#201434"></path><path d="M0 -243.4C30.7 -234.6 61.4 -225.9 88 -212.5C114.6 -199.1 137.2 -180.9 161.2 -161.2C185.3 -141.5 210.9 -120.3 224.8 -93.1C238.8 -66 241.1 -33 243.4 0L0 0Z" fill="#4d002b"></path></g></svg>