<svg id="visual" viewBox="0 0 960 540" width="960" height="540" xmlns="http://www.w3.org/2000/svg" xmlns:xlink="http://www.w3.org/1999/xlink" version="1.1"><g stroke-width="1" stroke-linejoin="bevel"><path d="M488 325L395 429L463 418Z" fill="#0d142c" stroke="#0d142c"></path><path d="M488 325L320 351L395 429Z" fill="#281234" stroke="#281234"></path><path d="M233 234L252 339L320 351Z" fill="#071327" stroke="#071327"></path><path d="M243 540L384 540L395 429Z" fill="#3b0b33" stroke="#3b0b33"></path><path d="M488 325L369 180L320 351Z" fill="#071327" stroke="#071327"></path><path d="M214 467L395 429L320 351Z" fill="#450630" stroke="#450630"></path><path d="M395 429L459 540L463 418Z" fill="#151530" stroke="#151530"></path><path d="M384 540L459 540L395 429Z" fill="#0d142c" stroke="#0d142c"></path><path d="M623 442L634 333L488 325Z" fill="#00101c" stroke="#00101c"></path><path d="M561 179L508 184L488 325Z" fill="#4d002b" stroke="#4d002b"></path><path d="M488 325L508 184L369 180Z" fill="#3b0b33" stroke="#3b0b33"></path><path d="M623 442L488 325L463 418Z" fill="#4d002b" stroke="#4d002b"></path><path d="M369 180L233 234L320 351Z" fill="#071327" stroke="#071327"></path><path d="M591 540L623 442L463 418Z" fill="#1e1433" stroke="#1e1433"></path><path d="M634 333L561 179L488 325Z" fill="#1e1433" stroke="#1e1433"></path><path d="M508 184L457 97L369 180Z" fill="#321034" stroke="#321034"></path><path d="M113 403L214 467L252 339Z" fill="#281234" stroke="#281234"></path><path d="M252 339L214 467L320 351Z" fill="#281234" stroke="#281234"></path><path d="M459 540L591 540L463 418Z" fill="#071327" stroke="#071327"></path><path d="M214 467L243 540L395 429Z" fill="#00101c" stroke="#00101c"></path><path d="M564 70L457 97L508 184Z" fill="#0d142c" stroke="#0d142c"></path><path d="M369 180L257 147L233 234Z" fill="#281234" stroke="#281234"></path><path d="M350 88L257 147L369 180Z" fill="#4d002b" stroke="#4d002b"></path><path d="M457 97L350 88L369 180Z" fill="#0d142c" stroke="#0d142c"></path><path d="M591 540L703 445L623 442Z" fill="#071327" stroke="#071327"></path><path d="M623 442L703 445L634 333Z" fill="#151530" stroke="#151530"></path><path d="M634 333L691 210L561 179Z" fill="#0d142c" stroke="#0d142c"></path><path d="M138 204L122 309L233 234Z" fill="#0d142c" stroke="#0d142c"></path><path d="M233 234L122 309L252 339Z" fill="#031222" stroke="#031222"></path><path d="M214 467L84 540L243 540Z" fill="#00101c" stroke="#00101c"></path><path d="M122 309L113 403L252 339Z" fill="#0d142c" stroke="#0d142c"></path><path d="M742 349L691 210L634 333Z" fill="#281234" stroke="#281234"></path><path d="M561 179L564 70L508 184Z" fill="#00101c" stroke="#00101c"></path><path d="M257 147L138 204L233 234Z" fill="#3b0b33" stroke="#3b0b33"></path><path d="M109 137L138 204L257 147Z" fill="#3b0b33" stroke="#3b0b33"></path><path d="M691 210L564 70L561 179Z" fill="#450630" stroke="#450630"></path><path d="M457 97L442 0L350 88Z" fill="#00101c" stroke="#00101c"></path><path d="M703 445L742 349L634 333Z" fill="#321034" stroke="#321034"></path><path d="M564 70L442 0L457 97Z" fill="#3b0b33" stroke="#3b0b33"></path><path d="M350 88L211 0L257 147Z" fill="#281234" stroke="#281234"></path><path d="M442 0L329 0L350 88Z" fill="#281234" stroke="#281234"></path><path d="M591 540L748 540L703 445Z" fill="#151530" stroke="#151530"></path><path d="M857 468L854 316L742 349Z" fill="#4d002b" stroke="#4d002b"></path><path d="M211 0L109 137L257 147Z" fill="#4d002b" stroke="#4d002b"></path><path d="M0 223L0 291L122 309Z" fill="#00101c" stroke="#00101c"></path><path d="M122 309L0 407L113 403Z" fill="#4d002b" stroke="#4d002b"></path><path d="M0 407L84 540L113 403Z" fill="#071327" stroke="#071327"></path><path d="M113 403L84 540L214 467Z" fill="#281234" stroke="#281234"></path><path d="M564 70L593 0L442 0Z" fill="#071327" stroke="#071327"></path><path d="M743 0L593 0L564 70Z" fill="#0d142c" stroke="#0d142c"></path><path d="M836 143L754 137L861 191Z" fill="#3b0b33" stroke="#3b0b33"></path><path d="M691 210L754 137L564 70Z" fill="#031222" stroke="#031222"></path><path d="M854 316L691 210L742 349Z" fill="#321034" stroke="#321034"></path><path d="M329 0L211 0L350 88Z" fill="#1e1433" stroke="#1e1433"></path><path d="M0 291L0 407L122 309Z" fill="#4d002b" stroke="#4d002b"></path><path d="M0 223L122 309L138 204Z" fill="#321034" stroke="#321034"></path><path d="M857 468L742 349L703 445Z" fill="#3b0b33" stroke="#3b0b33"></path><path d="M0 125L0 223L109 137Z" fill="#00101c" stroke="#00101c"></path><path d="M109 137L0 223L138 204Z" fill="#00101c" stroke="#00101c"></path><path d="M748 540L857 468L703 445Z" fill="#00101c" stroke="#00101c"></path><path d="M0 407L0 540L84 540Z" fill="#4d002b" stroke="#4d002b"></path><path d="M861 191L754 137L691 210Z" fill="#00101c" stroke="#00101c"></path><path d="M754 137L743 0L564 70Z" fill="#281234" stroke="#281234"></path><path d="M960 190L861 191L854 316Z" fill="#00101c" stroke="#00101c"></path><path d="M854 316L861 191L691 210Z" fill="#00101c" stroke="#00101c"></path><path d="M89 0L0 125L109 137Z" fill="#00101c" stroke="#00101c"></path><path d="M748 540L860 540L857 468Z" fill="#00101c" stroke="#00101c"></path><path d="M960 448L960 332L854 316Z" fill="#071327" stroke="#071327"></path><path d="M854 0L743 0L754 137Z" fill="#071327" stroke="#071327"></path><path d="M211 0L89 0L109 137Z" fill="#450630" stroke="#450630"></path><path d="M960 76L854 0L836 143Z" fill="#4d002b" stroke="#4d002b"></path><path d="M836 143L854 0L754 137Z" fill="#321034" stroke="#321034"></path><path d="M960 448L854 316L857 468Z" fill="#321034" stroke="#321034"></path><path d="M89 0L0 0L0 125Z" fill="#281234" stroke="#281234"></path><path d="M960 540L960 448L857 468Z" fill="#321034" stroke="#321034"></path><path d="M960 190L836 143L861 191Z" fill="#1e1433" stroke="#1e1433"></path><path d="M960 332L960 190L854 316Z" fill="#450630" stroke="#450630"></path><path d="M860 540L960 540L857 468Z" fill="#071327" stroke="#071327"></path><path d="M960 190L960 76L836 143Z" fill="#321034" stroke="#321034"></path><path d="M960 76L960 0L854 0Z" fill="#321034" stroke="#321034"></path></g></svg>